<?xml version="1.0" standalone="no"?>
<!DOCTYPE svg PUBLIC "-//W3C//DTD SVG 20010904//EN"
 "http://www.w3.org/TR/2001/REC-SVG-20010904/DTD/svg10.dtd">
<svg version="1.0" xmlns="http://www.w3.org/2000/svg"
 width="20pt" height="20pt" viewBox="0 0 512.000000 512.000000"
 preserveAspectRatio="xMidYMid meet">

<g transform="translate(0.000000,512.000000) scale(0.100000,-0.100000)"
fill="#000000" stroke="none">
<path d="M2355 4473 c-569 -47 -1036 -214 -1435 -514 -132 -99 -327 -295 -411
-415 -397 -557 -391 -1231 14 -1777 78 -105 239 -271 347 -357 623 -496 1553
-679 2409 -475 l103 25 92 -45 c50 -24 129 -70 176 -100 47 -31 114 -71 150
-89 90 -47 228 -89 265 -82 53 10 95 44 117 93 18 40 20 60 15 142 -2 53 -17
146 -31 206 -15 61 -29 137 -32 170 l-5 60 84 57 c380 262 637 712 687 1201
31 306 -77 673 -283 964 -73 102 -251 290 -355 376 -444 362 -1083 572 -1722
565 -80 -1 -163 -3 -185 -5z m385 -213 c617 -44 1155 -267 1519 -631 206 -207
331 -418 397 -674 26 -100 29 -125 29 -275 -1 -143 -4 -180 -27 -277 -84 -355
-296 -669 -591 -877 -116 -81 -132 -101 -147 -169 -13 -63 -4 -133 40 -329 16
-75 30 -140 30 -146 0 -13 -100 40 -237 125 -127 79 -228 127 -315 150 -56 15
-75 16 -120 6 -347 -77 -477 -93 -748 -93 -289 0 -530 33 -783 106 -639 186
-1129 602 -1296 1102 -93 278 -79 601 39 875 262 608 986 1046 1830 1106 167
12 219 12 380 1z"/>
<path d="M1099 3381 c-47 -48 -37 -130 21 -164 25 -15 85 -17 612 -17 561 0
584 1 615 20 57 34 61 121 8 168 l-26 22 -600 0 -601 0 -29 -29z"/>
<path d="M1099 2741 c-47 -48 -37 -130 21 -164 26 -16 113 -17 1030 -17 l1002
0 34 34 c49 49 45 114 -10 158 -20 16 -89 18 -1034 18 l-1014 0 -29 -29z"/>
<path d="M1099 2101 c-47 -48 -37 -130 21 -164 26 -16 141 -17 1440 -17 1299
0 1414 1 1440 17 58 34 68 116 21 164 l-29 29 -1432 0 -1432 0 -29 -29z"/>
</g>
</svg>
